<svg id="svg-source" height="0" version="1.1" 
  xmlns="http://www.w3.org/2000/svg" style="position:absolute; margin-left: -100%" 
  xmlns:xlink="http://www.w3.org/1999/xlink">
  <g id="diamond" data-iconmelon="Tattoo:8fc899b747a6b1378452f23496da5db0">
    <g>
      <rect x="15.424" y="0.888"  width="1.028" height="2.256"></rect>
      <rect x="25.604" y="1.355" transform="matrix(0.7911 0.6116 -0.6116 0.7911 6.9128 -15.4772)"  width="1.028" height="2.058"></rect>
      <rect x="5.319" y="1.295" transform="matrix(-0.7913 0.6114 -0.6114 -0.7913 11.8695 0.5962)"  width="1.029" height="2.058"></rect>
      <g>
        <path  d="M24.289,5.483H7.668l-3.342,4.68l11.653,16.318l11.653-16.318L24.289,5.483z M16.004,6.512l2.583,3.651
			h-5.235l2.583-3.651H16.004z M12.093,10.163h-0.011L9.499,6.512h5.177L12.093,10.163z M19.219,11.191L15.981,23.89l-3.238-12.698
			H19.219L19.219,11.191z M19.847,10.163l-2.583-3.651h5.229l-2.583,3.651H19.847z M8.197,6.512h0.042l2.583,3.651H5.589
			L8.197,6.512z M11.682,11.191l3.002,11.773L6.276,11.191H11.682L11.682,11.191z M17.282,22.953l2.999-11.762h5.399L17.282,22.953z
			 M21.169,10.163l2.583-3.651h0.007l2.608,3.651H21.169z"></path>
      </g>
      <rect x="15.49" y="28.797"  width="1.029" height="2.314"></rect>
      <rect x="20.932" y="23.536" transform="matrix(-0.6038 0.7971 -0.7971 -0.6038 53.9767 22.3006)"  width="1.028" height="2.057"></rect>
      <rect x="25.504" y="17.161" transform="matrix(-0.6033 0.7975 -0.7975 -0.6033 56.2212 8.414)"  width="1.029" height="2.057"></rect>
      <rect x="9.983" y="23.537" transform="matrix(0.603 0.7977 -0.7977 0.603 23.7628 1.3778)"  width="1.028" height="2.056"></rect>
      <rect x="5.414" y="17.159" transform="matrix(0.6033 0.7975 -0.7975 0.6033 16.8556 2.4861)"  width="1.029" height="2.057"></rect>
      <rect x="0.001" y="10.102"  width="2.054" height="1.028"></rect>
      <rect x="29.944" y="10.102"  width="2.055" height="1.028"></rect>
    </g>
  </g>
  <g id="globe" data-iconmelon="Simple Line Icons:ac44ad7e025985c356d6e2008b8a6bbb">
    <g>
      <path  d="M28.74,19.854l-2.132,2.133l-1.754-1.754c2.733-3.042,3.458-7.231,2.175-10.899l0,0V9.332
		c-0.525-1.497-1.349-2.906-2.542-4.101c-2.06-2.062-4.808-3.199-7.727-3.199c-0.205,0-0.402,0.046-0.607,0.059
		C16.09,2.098,16.03,2.084,15.97,2.108c-2.421,0.175-4.676,1.127-6.481,2.755L7.734,3.108l2.129-2.129
		c0.224-0.225,0.224-0.587,0-0.812c-0.225-0.224-0.589-0.224-0.813,0L6.517,2.702c-5.65,5.655-5.65,14.852,0,20.502
		c2.714,2.713,6.247,4.11,9.81,4.22c-0.211,1.082-0.953,3.431-3.462,3.431h-0.717c-0.317,0-0.575,0.258-0.575,0.572
		c0,0.315,0.258,0.573,0.575,0.573h9.237c0.317,0,0.577-0.258,0.577-0.573c0-0.314-0.26-0.572-0.577-0.572h-5.562
		c1.025-0.983,1.499-2.382,1.664-3.446c3.466-0.172,6.884-1.561,9.527-4.204l2.539-2.539c0.224-0.225,0.224-0.585,0-0.812
		C29.328,19.63,28.964,19.63,28.74,19.854z M23.675,19.866c-1.847,1.847-4.298,2.865-6.911,2.865c-2.607,0-5.064-1.019-6.909-2.865
		C8.7,18.712,7.937,17.323,7.482,15.86l1.015-0.311l1.33,0.968c0.102,0.073,0.222,0.109,0.339,0.109
		c0.162,0,0.326-0.073,0.438-0.206l1.973-2.317c0.15-0.171,0.187-0.41,0.093-0.617c-0.093-0.203-0.298-0.336-0.522-0.336h-1.403
		l-0.736-0.509L9.964,11.69l0.931-0.648c0.15-0.106,0.243-0.282,0.243-0.471V7.172c0-0.316-0.257-0.573-0.571-0.573H9.4
		C9.559,6.415,9.68,6.217,9.854,6.044c1.48-1.482,3.357-2.399,5.388-2.715l-0.654,1.423c-0.096,0.216-0.055,0.468,0.109,0.637
		l1.087,1.135c0.049,0.053,0.106,0.092,0.169,0.124l2.223,1.046c0.169,0.076,0.355,0.068,0.512-0.012c0,0,0.547-0.288,0.892-0.503
		c0.339,0,1.417,0.242,2.345,0.498l1.721,2.03c0.109,0.126,0.269,0.201,0.438,0.201h1.923
		C27.117,13.301,26.367,17.177,23.675,19.866z M8.514,7.745h1.478v2.528L9.045,10.93c-0.162,0.112-0.255,0.301-0.241,0.498
		l0.068,1.552c0.009,0.181,0.102,0.343,0.249,0.447l1.116,0.771c0.097,0.065,0.211,0.101,0.329,0.101h0.314l-0.812,0.975
		l-1.133-0.818c-0.146-0.106-0.334-0.134-0.504-0.085L7.17,14.757C6.727,12.372,7.182,9.86,8.514,7.745z M23.675,6.044
		c0.808,0.808,1.406,1.738,1.874,2.716h-1.201l-1.663-1.959c-0.074-0.087-0.17-0.149-0.279-0.181
		c-2.843-0.807-3.185-0.58-3.374-0.454c-0.166,0.111-0.432,0.26-0.623,0.364l-1.869-0.876l-0.744-0.777L16.566,3.2
		c0.065-0.003,0.129-0.02,0.194-0.02C19.374,3.181,21.828,4.196,23.675,6.044z M6.963,3.964l1.713,1.715
		C8.36,6.029,8.057,6.381,7.794,6.76c-0.011,0.011-0.017,0.024-0.03,0.038c-2.908,4.25-2.495,10.109,1.278,13.881
		c2.063,2.063,4.805,3.2,7.722,3.2c2.725,0,5.272-1.024,7.278-2.835l1.712,1.713c-5.229,4.793-13.36,4.699-18.425-0.365
		C2.265,17.33,2.169,9.195,6.963,3.964z"></path>
      <path  d="M19.341,14.359c-0.132-0.174-0.358-0.251-0.574-0.215c-0.214,0.044-0.389,0.211-0.438,0.425
		c-0.096,0.374-0.207,0.796-0.309,1.135c-0.358-0.274-0.903-0.652-1.727-1.175l-2.126-1.296c-0.147-0.092-0.343-0.106-0.504-0.041
		c-0.169,0.063-0.295,0.203-0.347,0.375l-0.484,1.699l-1.582,1.979c-0.079,0.103-0.123,0.229-0.123,0.359v1.964
		c0,0.263,0.178,0.493,0.432,0.557l2.934,0.724h4.392c0.112,0,0.222-0.036,0.314-0.096l1.814-1.188
		c0.159-0.106,0.255-0.287,0.255-0.48v-1.996c0-0.126-0.039-0.246-0.112-0.348L19.341,14.359z M20.121,18.774l-1.409,0.924
		l-4.077,0.018l-2.361-0.594v-1.316l1.529-1.909c0.047-0.061,0.082-0.129,0.104-0.203l0.31-1.083l1.472,0.895
		c0.857,0.544,1.875,1.255,1.981,1.346c0.079,0.235,0.325,0.425,0.572,0.425c0.383,0,0.569-0.14,0.897-1.283l0.982,1.288V18.774z"></path>
      <path  d="M24.89,10.203h-2.126c-0.317,0-0.574,0.259-0.574,0.575v2.175c0,0.182,0.088,0.349,0.229,0.46
		c0.099,0.073,0.222,0.113,0.345,0.113c0.053,0,0.107-0.005,0.162-0.021l2.125-0.619c0.244-0.07,0.414-0.295,0.414-0.552v-1.556
		C25.465,10.462,25.207,10.203,24.89,10.203z M24.315,11.904l-0.978,0.284v-0.837h0.978V11.904z"></path>
    </g>
  </g>
  <g id="arrow-right" data-iconmelon="Simple Line Icons:b11fd5edd69f44cef01f6dba7f72aebc">
    <g>
      <path  d="M16.003,0C7.177,0,0,7.178,0,16.003C0,24.825,7.177,32,16.003,32C24.823,32,32,24.825,32,16.003
		C32,7.178,24.823,0,16.003,0z M16.003,30.852c-8.191,0-14.856-6.662-14.856-14.849c0-8.19,6.665-14.854,14.856-14.854
		c8.186,0,14.848,6.663,14.848,14.854C30.851,24.19,24.188,30.852,16.003,30.852z"></path>
      <path  d="M11.806,8.017c-0.225,0.225-0.225,0.588,0,0.812l7.174,7.174l-7.174,7.168
		c-0.225,0.225-0.225,0.587,0,0.812c0.112,0.112,0.26,0.168,0.407,0.168c0.146,0,0.293-0.056,0.405-0.168l7.983-7.979l-7.983-7.986
		C12.395,7.794,12.03,7.794,11.806,8.017z"></path>
    </g>
  </g>
  <g id="console" data-iconmelon="Simple Line Icons:3799862b0d8cfb555e3a9985c55f7c04">
    <g>
      <path  d="M4.293,5.898c0.812,0,1.472-0.659,1.472-1.471c0-0.81-0.659-1.467-1.472-1.467S2.82,3.618,2.82,4.427
		C2.82,5.239,3.48,5.898,4.293,5.898z M4.293,4.109c0.178,0,0.322,0.144,0.322,0.318c0,0.354-0.646,0.354-0.646,0
		C3.97,4.253,4.115,4.109,4.293,4.109z"></path>
      <path  d="M31.426,0H0.574C0.26,0,0,0.259,0,0.574v30.852C0,31.742,0.26,32,0.574,32h30.852
		C31.743,32,32,31.742,32,31.425V0.574C32,0.259,31.743,0,31.426,0z M30.851,1.149V7.71H1.149V1.149H30.851z M1.149,30.852V8.858
		h29.701v21.994H1.149z"></path>
      <path  d="M15.948,5.943c0.837,0,1.519-0.68,1.519-1.516c0-0.834-0.682-1.512-1.519-1.512
		c-0.835,0-1.513,0.678-1.513,1.512C14.436,5.263,15.113,5.943,15.948,5.943z M15.948,4.063c0.202,0,0.366,0.165,0.366,0.364
		c0,0.401-0.728,0.405-0.728,0C15.587,4.228,15.748,4.063,15.948,4.063z"></path>
      <path  d="M4.692,11.733c-0.229-0.218-0.594-0.213-0.812,0.014c-0.22,0.229-0.214,0.592,0.014,0.811l3.575,3.447
		l-3.444,3.444c-0.224,0.224-0.224,0.588,0,0.812c0.115,0.112,0.261,0.168,0.408,0.168s0.292-0.056,0.404-0.168l4.269-4.27
		L4.692,11.733z"></path>
      <path  d="M12.143,19.281H8.29c-0.317,0-0.574,0.258-0.574,0.574c0,0.315,0.257,0.574,0.574,0.574h3.853
		c0.312,0,0.571-0.258,0.571-0.574C12.714,19.539,12.454,19.281,12.143,19.281z"></path>
      <path  d="M10.099,5.943c0.837,0,1.516-0.68,1.516-1.516c0-0.834-0.679-1.512-1.516-1.512
		c-0.835,0-1.513,0.678-1.513,1.512C8.586,5.263,9.264,5.943,10.099,5.943z M10.099,4.063c0.202,0,0.366,0.165,0.366,0.364
		c0,0.401-0.73,0.405-0.73,0C9.734,4.228,9.898,4.063,10.099,4.063z"></path>
    </g>
  </g>
  <g id="type" data-iconmelon="Simple Line Icons:130c42d26e7fdbbf7a25f18efd410e21">
    <g>
      <path  d="M4.523,32h22.954V0H4.523V32z M5.666,1.145h20.67v29.712H5.666V1.145z"></path>
      <path  d="M21.759,7.747c-0.316,0-0.572,0.258-0.572,0.571v10.463l-4.686-8.81c-0.028-0.053-0.088-0.065-0.129-0.104
		c-0.044-0.045-0.061-0.11-0.12-0.141c-0.017-0.008-0.035,0.004-0.054-0.001c-0.071-0.028-0.14-0.017-0.217-0.015
		c-0.072,0.001-0.135-0.009-0.199,0.02c-0.018,0.007-0.037-0.005-0.053,0.003c-0.061,0.032-0.074,0.097-0.117,0.142
		c-0.04,0.041-0.099,0.056-0.126,0.109l-5.758,11.52c-0.141,0.282-0.026,0.626,0.256,0.768c0.083,0.038,0.171,0.06,0.255,0.06
		c0.21,0,0.411-0.115,0.512-0.317l2.72-5.441h5.247l2.469,4.641v3.17c0,0.314,0.256,0.572,0.572,0.572
		c0.315,0,0.57-0.258,0.57-0.572V8.318C22.33,8.005,22.075,7.747,21.759,7.747z M14.043,15.429l1.97-3.942l2.095,3.942H14.043z"></path>
    </g>
  </g>
  <g id="microphone" data-iconmelon="Simple Line Icons:73237748ac8b952fbc162cc0627bd0b0">
    <g>
      <path  d="M23.011,6.22C22.572,2.673,19.558,0,16,0c-3.556,0-6.571,2.673-7.013,6.22L8.965,6.39
		C8.933,6.625,8.9,6.858,8.9,7.099c0,0.238,0.032,0.469,0.064,0.698l0.026,0.202c0.202,1.544,0.901,2.965,1.957,4.047l1.292,14.985
		l3.269,0.005l-0.002,2.818c0,0.861,0.572,2.146,2.145,2.146v-0.985c-1.088,0-1.157-0.97-1.159-1.16l0.001-2.818l3.233,0.004
		l1.325-14.997c1.054-1.08,1.755-2.502,1.955-4.047l0.028-0.207c0.034-0.227,0.064-0.457,0.064-0.69c0-0.238-0.03-0.466-0.064-0.695
		L23.011,6.22z M19.958,13.232H12.04l-0.076-0.879h8.072L19.958,13.232z M18.823,26.055l-5.679-0.009l-1.02-11.828h7.747
		L18.823,26.055z M22.06,7.649l-0.029,0.222c-0.174,1.333-0.765,2.566-1.673,3.497h-8.716c-0.908-0.931-1.5-2.164-1.673-3.495
		L9.94,7.659C9.914,7.476,9.886,7.29,9.886,7.099c0-0.194,0.028-0.384,0.054-0.571l0.024-0.186C10.347,3.288,12.941,0.985,16,0.985
		c3.061,0,5.655,2.303,6.034,5.356l0.026,0.199c0.026,0.184,0.055,0.366,0.055,0.558C22.115,7.288,22.086,7.467,22.06,7.649z"></path>
      <path  d="M15.999,14.888c-0.272,0-0.493,0.221-0.493,0.491v3.309c0,0.27,0.221,0.49,0.493,0.49
		c0.272,0,0.493-0.221,0.493-0.49v-3.309C16.492,15.108,16.271,14.888,15.999,14.888z"></path>
    </g>
  </g>
  <g id="bubble-speech" data-iconmelon="Simple Line Icons:fb184cb4fb59727d7839f79c7a826661">
    <g>
      <g>
        <g>
          <g>
            <path  d="M10.041,14.644c-1.379,0-2.501-1.122-2.501-2.502c0-1.379,1.122-2.501,2.501-2.501
					s2.504,1.123,2.504,2.501C12.545,13.521,11.42,14.644,10.041,14.644z M10.041,10.787c-0.744,0-1.352,0.609-1.352,1.354
					c0,0.748,0.607,1.355,1.352,1.355c0.747,0,1.354-0.607,1.354-1.355C11.396,11.396,10.788,10.787,10.041,10.787z"></path>
          </g>
        </g>
      </g>
      <g>
        <g>
          <g>
            <path  d="M15.912,14.644c-1.379,0-2.5-1.122-2.5-2.502c0-1.379,1.121-2.501,2.5-2.501s2.504,1.123,2.504,2.501
					C18.416,13.521,17.291,14.644,15.912,14.644z M15.912,10.787c-0.746,0-1.354,0.609-1.354,1.354c0,0.748,0.607,1.355,1.354,1.355
					c0.75,0,1.357-0.607,1.357-1.355C17.27,11.396,16.662,10.787,15.912,10.787z"></path>
          </g>
        </g>
      </g>
      <g>
        <g>
          <g>
            <path  d="M21.781,14.644c-1.377,0-2.501-1.122-2.501-2.502c0-1.379,1.124-2.501,2.501-2.501
					c1.382,0,2.503,1.123,2.503,2.501C24.284,13.521,23.163,14.644,21.781,14.644z M21.781,10.787c-0.747,0-1.352,0.609-1.352,1.354
					c0,0.748,0.604,1.355,1.352,1.355c0.75,0,1.357-0.607,1.357-1.355C23.139,11.396,22.531,10.787,21.781,10.787z"></path>
          </g>
        </g>
      </g>
      <g>
        <g>
          <g>
            <path  d="M25.636,32c-0.15,0-0.298-0.058-0.407-0.167l-7.541-7.541H2.504c-0.027,0-0.055-0.004-0.082-0.007
					C1.084,24.246,0,23.138,0,21.784V2.503C0,1.125,1.122,0,2.504,0h26.992c1.377,0,2.498,1.122,2.498,2.5v19.212
					C31.997,21.733,32,21.759,32,21.784c0,0.026-0.003,0.05-0.006,0.078c-0.035,1.315-1.1,2.381-2.418,2.422
					c-0.025,0.003-0.053,0.007-0.08,0.007h-3.285v7.135c0,0.232-0.14,0.441-0.355,0.532C25.783,31.986,25.71,32,25.636,32z
					 M2.572,23.142h15.354c0.153,0,0.299,0.062,0.405,0.169l6.73,6.729v-6.323c0-0.317,0.257-0.575,0.574-0.575h3.79
					c0.024-0.001,0.046-0.004,0.07-0.004c0.744,0,1.35-0.603,1.35-1.346c0-0.004,0-0.008,0-0.014V2.508
					c0-0.753-0.605-1.359-1.35-1.359H2.504c-0.748,0-1.354,0.608-1.354,1.355v19.281c0,0.745,0.604,1.354,1.349,1.354
					C2.525,23.138,2.547,23.141,2.572,23.142z"></path>
          </g>
        </g>
      </g>
    </g>
  </g>
  <g id="notepad" data-iconmelon="Simple Line Icons:173152b2b601fc5a81c91753d0d666f9">
    <g>
      <path  d="M24.542,1.826c-0.049-0.013-0.096-0.01-0.142-0.006h-2.402V0.542c0-0.3-0.245-0.542-0.542-0.542
		c-0.299,0-0.542,0.242-0.542,0.542V1.82h-2.549V0.542c0-0.3-0.245-0.542-0.542-0.542c-0.3,0-0.545,0.242-0.545,0.542V1.82h-2.552
		V0.542c0-0.3-0.242-0.542-0.542-0.542c-0.297,0-0.541,0.242-0.541,0.542V1.82h-2.55V0.542c0-0.3-0.243-0.542-0.542-0.542
		s-0.542,0.242-0.542,0.542V1.82H7.604c-0.049-0.001-0.092-0.001-0.142,0C6.193,1.861,5.174,2.903,5.174,4.18v5.454v21.825
		C5.174,31.758,5.418,32,5.715,32h20.57c0.3,0,0.54-0.242,0.54-0.541V9.634V4.18C26.826,2.903,25.809,1.861,24.542,1.826z
		 M6.257,4.18c0-0.703,0.57-1.273,1.274-1.273c0.003,0,0.003,0,0.008,0h2.47v1.275c0,0.3,0.243,0.541,0.542,0.541
		s0.542-0.241,0.542-0.541V2.906h2.55v1.275c0,0.3,0.244,0.541,0.541,0.541c0.3,0,0.542-0.241,0.542-0.541V2.906h2.552v1.275
		c0,0.3,0.245,0.541,0.545,0.541c0.297,0,0.542-0.241,0.542-0.541V2.906h2.549v1.275c0,0.3,0.243,0.541,0.542,0.541
		c0.297,0,0.542-0.241,0.542-0.541V2.906h2.464c0.006,0,0.006,0,0.011,0c0.699,0,1.27,0.57,1.27,1.273v4.914H6.257V4.18z
		 M25.742,12.734H6.257v-2.557h19.484V12.734z M6.257,24.725h19.484v2.555H6.257V24.725z M6.257,23.643v-2.555h19.484v2.555H6.257z
		 M6.257,20.006v-2.555h19.484v2.555H6.257z M6.257,16.369v-2.55h19.484v2.55H6.257z M6.257,30.918v-2.555h19.484v2.555H6.257z"></path>
    </g>
  </g>
  <g id="dropdown" data-iconmelon="Playear:921c66d1fa04a708a2be1686ebe02d9f">
    <path d="M31.576,8.301c-0.565-0.565-1.482-0.565-2.046,0L17.024,20.808c-0.565,0.565-1.483,0.564-2.047,0.001L2.47,8.301
  c-0.565-0.565-1.481-0.565-2.046,0c-0.565,0.565-0.565,1.48,0,2.047l12.507,12.507c0.846,0.846,1.957,1.27,3.069,1.27
  c1.112,0,2.224-0.424,3.07-1.27l12.506-12.507C32.141,9.781,32.141,8.866,31.576,8.301z"></path>
  </g>
  <g id="menu" data-iconmelon="80 icons pack:df4c03e14fffd286f5d0afe417c30316">
    <g>
      <g>
        <path d="M2.081,8.724h27.838C31.068,8.724,32,7.791,32,6.643c0-1.149-0.932-2.08-2.081-2.08H2.081C0.932,4.562,0,5.493,0,6.643
      C0,7.791,0.932,8.724,2.081,8.724z"></path>
      </g>
      <g>
        <path d="M29.919,13.918H2.081C0.932,13.918,0,14.851,0,15.999c0,1.15,0.932,2.081,2.081,2.081h27.838
      c1.149,0,2.081-0.931,2.081-2.081C32,14.851,31.068,13.918,29.919,13.918z"></path>
      </g>
      <g>
        <path d="M29.919,23.276H2.081C0.932,23.276,0,24.207,0,25.357c0,1.147,0.932,2.08,2.081,2.08h27.838
      c1.149,0,2.081-0.933,2.081-2.08C32,24.207,31.068,23.276,29.919,23.276z"></path>
      </g>
    </g>
  </g>
</svg>